<svg preserveAspectRatio="xMinYMin slice">
	<defs>
		<g xmlns="http://www.w3.org/2000/svg" id="wave">
			<g id="center-circle">
				<path style="fill:#ffffff;fill-opacity:1;stroke-width:0" xmlns:sodipodi="http://sodipodi.sourceforge.net/DTD/sodipodi-0.dtd" sodipodi:type="inkscape:offset" xmlns:inkscape="http://www.inkscape.org/namespaces/inkscape" inkscape:radius="2.8301888" inkscape:original="M 50 2.8300781 A 47.169811 47.169811 0 0 0 2.8300781 50 A 47.169811 47.169811 0 0 0 50 97.169922 A 47.169811 47.169811 0 0 0 97.169922 50 A 47.169811 47.169811 0 0 0 50 2.8300781 z " xmlns:xlink="http://www.w3.org/1999/xlink" xlink:href="#c-1" id="c-1-outline" inkscape:href="#c-1" d="M 50,0 C 36.909991,-3.0775694e-5 23.900565,5.3884975 14.644531,14.644531 5.3884975,23.900565 -3.0775661e-5,36.909991 0,50 -3.0804082e-5,63.090009 5.3884975,76.099435 14.644531,85.355469 23.900565,94.611503 36.909991,100.00003 50,100 63.090009,100.00003 76.099435,94.611503 85.355469,85.355469 94.611503,76.099435 100.00003,63.090009 100,50 100.00003,36.909991 94.611503,23.900565 85.355469,14.644531 76.099435,5.3884975 63.090009,-3.0803444e-5 50,0 Z"/>
				<circle style="fill:#3a3a5f;fill-opacity:1;stroke-width:0" id="c-1" cx="50" cy="50" r="47.169811"/>
				<path style="fill:#5f5fa0;fill-opacity:1;stroke-width:0" xmlns:sodipodi="http://sodipodi.sourceforge.net/DTD/sodipodi-0.dtd" sodipodi:type="inkscape:offset" xmlns:inkscape="http://www.inkscape.org/namespaces/inkscape" inkscape:radius="2.8301888" inkscape:original="M 50 12.263672 A 37.735847 37.735847 0 0 0 12.263672 50 A 37.735847 37.735847 0 0 0 50 87.736328 A 37.735847 37.735847 0 0 0 87.736328 50 A 37.735847 37.735847 0 0 0 50 12.263672 z " xmlns:xlink="http://www.w3.org/1999/xlink" xlink:href="#c-2" id="c-2-outline" inkscape:href="#c-2" d="M 50,9.4335938 C 39.379664,9.4334584 28.824165,13.804742 21.314453,21.314453 13.804742,28.824165 9.4334584,39.379664 9.4335938,50 9.4334584,60.620336 13.804742,71.175835 21.314453,78.685547 28.824165,86.195258 39.379664,90.566542 50,90.566406 60.620336,90.566542 71.175835,86.195258 78.685547,78.685547 86.195258,71.175835 90.566542,60.620336 90.566406,50 90.566542,39.379664 86.195258,28.824165 78.685547,21.314453 71.175835,13.804742 60.620336,9.4334584 50,9.4335938 Z"/>
				<circle style="fill:#3a3a5f;fill-opacity:1;stroke-width:0" id="c-2" cx="50" cy="50" r="37.735847"/>
				<path style="fill:#5f5fa0;fill-opacity:1;stroke-width:0" xmlns:sodipodi="http://sodipodi.sourceforge.net/DTD/sodipodi-0.dtd" sodipodi:type="inkscape:offset" xmlns:inkscape="http://www.inkscape.org/namespaces/inkscape" inkscape:radius="2.8301888" inkscape:original="M 50 21.697266 A 28.301888 28.301888 0 0 0 21.697266 50 A 28.301888 28.301888 0 0 0 50 78.302734 A 28.301888 28.301888 0 0 0 78.302734 50 A 28.301888 28.301888 0 0 0 50 21.697266 z " xmlns:xlink="http://www.w3.org/1999/xlink" xlink:href="#c-3" id="c-3-outline" inkscape:href="#c-3" d="M 50,18.867187 C 41.849331,18.866944 33.749721,22.222935 27.986328,27.986328 22.222935,33.749721 18.866944,41.849331 18.867187,50 c -2.43e-4,8.150669 3.355748,16.250279 9.119141,22.013672 5.763393,5.763393 13.863003,9.119384 22.013672,9.11914 8.150669,2.44e-4 16.250279,-3.355747 22.013672,-9.11914 C 77.777065,66.250279 81.133056,58.150669 81.132812,50 81.133056,41.849331 77.777065,33.749721 72.013672,27.986328 66.250279,22.222935 58.150669,18.866944 50,18.867187 Z"/>
				<circle style="fill:#3a3a5f;fill-opacity:1;stroke-width:0" id="c-3" cx="50" cy="50" r="28.301888"/>
				<path style="fill:#5f5fa0;fill-opacity:1;stroke-width:0" xmlns:sodipodi="http://sodipodi.sourceforge.net/DTD/sodipodi-0.dtd" sodipodi:type="inkscape:offset" xmlns:inkscape="http://www.inkscape.org/namespaces/inkscape" inkscape:radius="2.8301888" inkscape:original="M 50 31.132812 A 18.867924 18.867924 0 0 0 31.132812 50 A 18.867924 18.867924 0 0 0 50 68.867188 A 18.867924 18.867924 0 0 0 68.867188 50 A 18.867924 18.867924 0 0 0 50 31.132812 z " xmlns:xlink="http://www.w3.org/1999/xlink" xlink:href="#c-4" id="c-4-outline" inkscape:href="#c-4" d="M 50,28.302734 C 44.319729,28.302956 38.674761,30.641645 34.658203,34.658203 30.641645,38.674761 28.302956,44.319729 28.302734,50 c 2.22e-4,5.680271 2.338911,11.325239 6.355469,15.341797 C 38.674761,69.358355 44.319729,71.697044 50,71.697266 55.680271,71.697044 61.325239,69.358355 65.341797,65.341797 69.358355,61.325239 71.697044,55.680271 71.697266,50 71.697044,44.319729 69.358355,38.674761 65.341797,34.658203 61.325239,30.641645 55.680271,28.302956 50,28.302734 Z"/>
				<circle style="fill:#3a3a5f;fill-opacity:1;stroke-width:0" id="c-4" cx="50" cy="50" r="18.867924"/>
				<path style="fill:#5f5fa0;fill-opacity:1;stroke-width:0" xmlns:sodipodi="http://sodipodi.sourceforge.net/DTD/sodipodi-0.dtd" sodipodi:type="inkscape:offset" xmlns:inkscape="http://www.inkscape.org/namespaces/inkscape" inkscape:radius="2.8301888" inkscape:original="M 50 40.566406 A 9.4339619 9.4339619 0 0 0 40.566406 50 A 9.4339619 9.4339619 0 0 0 50 59.433594 A 9.4339619 9.4339619 0 0 0 59.433594 50 A 9.4339619 9.4339619 0 0 0 50 40.566406 z " xmlns:xlink="http://www.w3.org/1999/xlink" xlink:href="#c-5" id="c-5-outline" inkscape:href="#c-5" d="m 50,37.736328 c -3.210588,1.25e-4 -6.401647,1.321569 -8.671875,3.591797 -2.270228,2.270228 -3.591672,5.461287 -3.591797,8.671875 1.25e-4,3.210588 1.321569,6.401647 3.591797,8.671875 2.270228,2.270228 5.461287,3.591672 8.671875,3.591797 3.210588,-1.25e-4 6.401647,-1.321569 8.671875,-3.591797 C 60.942103,56.401647 62.263547,53.210588 62.263672,50 62.263547,46.789412 60.942103,43.598353 58.671875,41.328125 56.401647,39.057897 53.210588,37.736453 50,37.736328 Z"/>
				<circle style="fill:#3a3a5f;fill-opacity:1;stroke-width:0" id="c-5" cx="50" cy="50" r="9.4339619"/>
				<circle style="fill:#ffffff;fill-opacity:1;stroke-width:0" id="c-6-outline" cx="50" cy="50" r="2.8301888"/>
			</g>
			<g id="right-semi-circle">
				<path id="c-1-outline-9-9" style="fill:#ffffff;fill-opacity:1;stroke-width:0" d="M 100,3.7735849e-6 C 86.910031,3.7735849e-6 73.900758,5.3887491 64.644753,14.644753 55.388745,23.900759 50,36.91003 50,50 h 50 z"/>
				<path id="c-1-4-2" style="fill:#3a3a5f;fill-opacity:1;stroke-width:0" d="M 100,2.8301925 A 47.169811,47.169811 0 0 0 52.830189,50 H 100 Z"/>
				<path id="c-2-outline-8-7" style="fill:#5f5fa0;fill-opacity:1;stroke-width:0" d="m 100,9.4339623 c -10.620164,0 -21.175552,4.3713067 -28.685141,11.8808967 C 63.805269,28.824448 59.433962,39.379836 59.433962,50 H 100 Z"/>
				<path id="c-2-8-9" style="fill:#3a3a5f;fill-opacity:1;stroke-width:0" d="M 100,12.264151 A 37.735849,37.735849 0 0 0 62.264151,50 H 100 Z"/>
				<path id="c-3-outline-2-5" style="fill:#5f5fa0;fill-opacity:1;stroke-width:0" d="m 100,18.867925 c -8.150358,0 -16.250019,3.355709 -22.013192,9.118883 C 72.223634,33.749981 68.867925,41.849642 68.867925,50 H 100 Z"/>
				<path id="c-3-4-4" style="fill:#3a3a5f;fill-opacity:1;stroke-width:0" d="M 100,21.698113 A 28.301887,28.301887 0 0 0 71.698113,50 H 100 Z"/>
				<path id="c-4-outline-5-3" style="fill:#5f5fa0;fill-opacity:1;stroke-width:0" d="m 100,28.301887 c -5.680552,0 -11.326329,2.338269 -15.343086,6.355026 C 80.640156,38.673671 78.301887,44.319447 78.301887,50 H 100 Z"/>
				<path id="c-4-5-1" style="fill:#3a3a5f;fill-opacity:1;stroke-width:0" d="M 100,31.132076 A 18.867925,18.867925 0 0 0 81.132076,50 H 100 Z"/>
				<path id="c-5-outline-1-2" style="fill:#5f5fa0;fill-opacity:1;stroke-width:0" d="m 100,37.735849 c -3.210745,0 -6.402639,1.320829 -8.67298,3.591171 C 89.056679,43.597361 87.735849,46.789253 87.735849,50 H 100 Z"/>
				<path id="c-5-7-3" style="fill:#3a3a5f;fill-opacity:1;stroke-width:0" d="M 100,40.566038 A 9.4339623,9.4339623 0 0 0 90.566038,50 H 100 Z"/>
				<path id="c-6-outline-1-3" style="fill:#ffffff;fill-opacity:1;stroke-width:0" d="M 100,47.169811 A 2.8301887,2.8301887 0 0 0 97.169812,50 H 100 Z"/>
			</g>
			<g id="left-semi-circle">
				<path id="c-1-outline-9" style="fill:#ffffff;fill-opacity:1;stroke-width:0" d="m 0,50 v 50 C 13.08997,100 26.099242,94.611255 35.355247,85.355247 44.611255,76.099242 50,63.08997 50,50 Z"/>
				<path id="c-1-4" d="M 0,50 V 97.169812 A 47.169811,47.169811 0 0 0 47.169811,50 Z" style="fill:#3a3a5f;fill-opacity:1;stroke-width:0"/>
				<path id="c-2-outline-8" style="fill:#5f5fa0;fill-opacity:1;stroke-width:0" d="m 0,50 v 40.566038 c 10.620164,0 21.175552,-4.371307 28.685142,-11.880896 C 36.194731,71.175552 40.566038,60.620164 40.566038,50 Z"/>
				<path id="c-2-8" style="fill:#3a3a5f;fill-opacity:1;stroke-width:0" d="M 0,50 V 87.735849 A 37.735849,37.735849 0 0 0 37.735849,50 Z"/>
				<path id="c-3-outline-2" style="fill:#5f5fa0;fill-opacity:1;stroke-width:0" d="m 0,50 v 31.132076 c 8.1503585,0 16.250019,-3.35571 22.013193,-9.118883 C 27.776366,66.250019 31.132076,58.150359 31.132076,50 Z"/>
				<path id="c-3-4" style="fill:#3a3a5f;fill-opacity:1;stroke-width:0" d="M 0,50 V 78.301887 A 28.301887,28.301887 0 0 0 28.301887,50 Z"/>
				<path id="c-4-outline-5" style="fill:#5f5fa0;fill-opacity:1;stroke-width:0" d="m 0,50 v 21.698113 c 5.6805529,0 11.326329,-2.338268 15.343087,-6.355026 C 19.359844,61.326329 21.698113,55.680553 21.698113,50 Z"/>
				<path id="c-4-5" style="fill:#3a3a5f;fill-opacity:1;stroke-width:0" d="M 0,50 V 68.867925 A 18.867925,18.867925 0 0 0 18.867925,50 Z"/>
				<path id="c-5-outline-1" style="fill:#5f5fa0;fill-opacity:1;stroke-width:0" d="m 0,50 v 12.264151 c 3.2107472,0 6.4026396,-1.320829 8.6729802,-3.591171 C 10.943322,56.40264 12.264151,53.210747 12.264151,50 Z"/>
				<path id="c-5-7" style="fill:#3a3a5f;fill-opacity:1;stroke-width:0" d="m 0,50 v 9.433962 A 9.4339623,9.4339623 0 0 0 9.4339623,50 Z"/>
				<path id="c-6-outline-1" style="fill:#ffffff;fill-opacity:1;stroke-width:0" d="m 0,50 v 2.830189 A 2.8301887,2.8301887 0 0 0 2.8301887,50 Z"/>
			</g>
		</g>
		<pattern id="wave-pattern" width="100" height="100" patternUnits="userSpaceOnUse">
			<use href="#wave"/>
			<use href="#wave" transform="translate(100, 0) scale(-1, 1)"/>
		</pattern>
	</defs>
	<rect id="wave-divider" width="100%" height="100" fill="url(#wave-pattern)"/>
</svg>